<svg width="27" height="28" viewBox="0 0 27 28" fill="none" xmlns="http://www.w3.org/2000/svg">
<g id="Group 1">
<path id="Vector" d="M20.3489 12.4779C19.9699 12.8592 19.6797 13.3194 19.4989 13.8256C19.3181 14.3319 19.2512 14.8718 19.3029 15.4069L19.2849 15.3889C19.3381 16.0188 19.2531 16.6526 19.036 17.2463C18.8189 17.8399 18.4749 18.379 18.028 18.826C17.581 19.2729 17.0419 19.617 16.4482 19.834C15.8546 20.0511 15.2207 20.1361 14.5909 20.0829L14.6089 20.1009C13.8555 20.0308 13.0988 20.1947 12.4419 20.5704C11.7851 20.9461 11.2601 21.5152 10.9386 22.2002C10.6171 22.8852 10.5146 23.6526 10.6452 24.398C10.7759 25.1433 11.1332 25.8302 11.6685 26.365C12.2038 26.8998 12.891 27.2565 13.6364 27.3864C14.3819 27.5164 15.1492 27.4132 15.8339 27.0911C16.5186 26.7689 17.0872 26.2435 17.4623 25.5863C17.8374 24.9291 18.0007 24.1723 17.9299 23.4189L17.9489 23.4369C17.8957 22.8071 17.9806 22.1732 18.1977 21.5795C18.4148 20.9859 18.7589 20.4468 19.2058 19.9998C19.6528 19.5529 20.1919 19.2088 20.7855 18.9918C21.3792 18.7747 22.013 18.6897 22.6429 18.7429L22.6239 18.7249C23.2393 18.7802 23.8588 18.6793 24.4249 18.4315C24.9909 18.1837 25.4853 17.797 25.8621 17.3073C26.2389 16.8176 26.4861 16.2406 26.5805 15.63C26.675 15.0193 26.6138 14.3947 26.4026 13.8139C26.1914 13.2332 25.837 12.7152 25.3723 12.3079C24.9076 11.9006 24.3476 11.6172 23.7442 11.484C23.1408 11.3508 22.5135 11.372 21.9205 11.5457C21.3275 11.7195 20.788 12.0401 20.3519 12.4779H20.3489Z" fill="white"/>
<path id="Vector_2" d="M12.9718 17.7429L12.9528 17.7249C13.4881 17.7788 14.0287 17.7131 14.5356 17.5325C15.0424 17.3519 15.5028 17.061 15.8834 16.6807C16.2639 16.3004 16.5553 15.8402 16.7362 15.3335C16.9172 14.8268 16.9833 14.2863 16.9298 13.7509L16.9488 13.7689C16.8956 13.139 16.9806 12.5052 17.1976 11.9115C17.4147 11.3179 17.7588 10.7788 18.2057 10.3318C18.6527 9.88493 19.1918 9.54083 19.7854 9.32383C20.3791 9.10669 21.0129 9.02176 21.6428 9.07493L21.6238 9.05693C22.3773 9.12773 23.1342 8.96429 23.7914 8.58903C24.4487 8.21377 24.9741 7.6449 25.2961 6.96003C25.6181 6.27517 25.721 5.50764 25.5908 4.76213C25.4606 4.01662 25.1036 3.32944 24.5684 2.7943C24.0333 2.25917 23.3461 1.90213 22.6006 1.77191C21.8551 1.64168 21.0876 1.74459 20.4027 2.06661C19.7178 2.38862 19.149 2.91407 18.7737 3.57128C18.3984 4.22848 18.235 4.98545 18.3058 5.73893L18.2878 5.71993C18.3411 6.34982 18.2563 6.98376 18.0393 7.57748C17.8223 8.1712 17.4782 8.71039 17.0313 9.15743C16.5843 9.60433 16.0451 9.94843 15.4514 10.1654C14.8576 10.3824 14.2237 10.4672 13.5938 10.4139L13.6118 10.4329C13.0765 10.379 12.5358 10.4447 12.029 10.6253C11.5222 10.8058 11.0618 11.0968 10.6812 11.4771C10.3006 11.8574 10.0093 12.3176 9.82834 12.8243C9.64744 13.331 9.58134 13.8715 9.63484 14.4069L9.61684 14.3889C9.66984 15.0187 9.58474 15.6525 9.36764 16.2461C9.15044 16.8396 8.80644 17.3787 8.35954 17.8256C7.9126 18.2725 7.37356 18.6165 6.78 18.8337C6.18644 19.0508 5.55265 19.1359 4.92284 19.0829L4.94084 19.1009C4.18736 19.0301 3.43039 19.1935 2.77318 19.5688C2.11598 19.9441 1.59053 20.5129 1.26852 21.1978C0.946502 21.8827 0.843582 22.6502 0.973812 23.3957C1.10404 24.1412 1.46108 24.8284 1.99621 25.3635C2.53135 25.8987 3.21853 26.2557 3.96404 26.3859C4.70955 26.5161 5.47708 26.4132 6.16195 26.0912C6.84681 25.7692 7.41568 25.2438 7.79094 24.5866C8.16624 23.9293 8.32964 23.1724 8.25884 22.4189L8.27784 22.4369C8.22464 21.807 8.30964 21.1732 8.52674 20.5795C8.74374 19.9859 9.08784 19.4468 9.53474 18.9998C9.98174 18.5529 10.5208 18.2088 11.1144 17.9918C11.7081 17.7747 12.3419 17.6897 12.9718 17.7429Z" fill="white"/>
<path id="Vector_3" d="M6.2699 15.7359C6.64892 15.3547 6.9391 14.8945 7.11974 14.3882C7.30038 13.8819 7.36702 13.3419 7.3149 12.8069L7.33389 12.8249C7.28069 12.1949 7.36565 11.5608 7.58286 10.967C7.80007 10.3732 8.1443 9.83397 8.5915 9.38697C9.0387 8.93999 9.578 8.596 10.1719 8.37905C10.7658 8.16209 11.3999 8.07739 12.0299 8.13087L12.0109 8.11287C12.7641 8.18344 13.5208 8.01995 14.1777 7.64471C14.8346 7.26948 15.3597 6.70075 15.6816 6.0161C16.0034 5.33144 16.1062 4.56419 15.976 3.81896C15.8458 3.07373 15.4888 2.38681 14.9539 1.85187C14.419 1.31693 13.732 0.960013 12.9868 0.829793C12.2416 0.699563 11.4743 0.802383 10.7897 1.1242C10.105 1.44602 9.5363 1.97119 9.1611 2.62809C8.7858 3.28499 8.6223 4.04165 8.6929 4.79487L8.6749 4.77687C8.7281 5.40672 8.6431 6.04059 8.426 6.63423C8.2089 7.22787 7.86492 7.76698 7.41796 8.21394C6.97101 8.6609 6.43189 9.00493 5.83825 9.22197C5.24461 9.43907 4.61075 9.52407 3.9809 9.47087L3.9989 9.48887C3.38347 9.43367 2.76406 9.53477 2.19808 9.78267C1.6321 10.0306 1.13785 10.4174 0.761139 10.9072C0.384429 11.3969 0.137449 11.9739 0.0430689 12.5845C-0.0513011 13.1952 0.0099889 13.8198 0.221259 14.4004C0.432529 14.9811 0.786959 15.499 1.25169 15.9062C1.71642 16.3135 2.27642 16.5968 2.8798 16.73C3.48317 16.8631 4.1104 16.8418 4.70337 16.6681C5.29633 16.4943 5.83583 16.1737 6.27189 15.7359H6.2699Z" fill="white"/>
</g>
</svg>
